<svg xmlns="http://www.w3.org/2000/svg" width="15" height="15" viewBox="0 0 15 15"><defs><style>.a{fill:#fff;}</style></defs><g transform="translate(-2 -2)"><g transform="translate(2 2)"><path class="a" d="M6.35,2h6.3A4.353,4.353,0,0,1,17,6.35v6.3A4.35,4.35,0,0,1,12.65,17H6.35A4.353,4.353,0,0,1,2,12.65V6.35A4.35,4.35,0,0,1,6.35,2M6.2,3.5A2.7,2.7,0,0,0,3.5,6.2v6.6a2.7,2.7,0,0,0,2.7,2.7h6.6a2.7,2.7,0,0,0,2.7-2.7V6.2a2.7,2.7,0,0,0-2.7-2.7H6.2m7.238,1.125a.938.938,0,1,1-.937.938.938.938,0,0,1,.938-.938M9.5,5.75A3.75,3.75,0,1,1,5.75,9.5,3.75,3.75,0,0,1,9.5,5.75m0,1.5A2.25,2.25,0,1,0,11.75,9.5,2.25,2.25,0,0,0,9.5,7.25Z" transform="translate(-2 -2)"/></g></g></svg>