<svg xmlns="http://www.w3.org/2000/svg" width="20.072" height="20.072" viewBox="0 0 20.072 20.072"><defs><style>.a{fill:#fff;}</style></defs><g transform="translate(0 0)"><path class="a" d="M9.639,6.626,8.2,5.154a10.842,10.842,0,0,0-4.15,8.08H6.062A8.779,8.779,0,0,1,9.639,6.626ZM22.11,13.235h2.012a10.842,10.842,0,0,0-4.15-8.08L18.538,6.621A8.809,8.809,0,0,1,22.11,13.235Zm-1.987.515c0-3.165-1.645-5.806-4.528-6.505v-.7a1.51,1.51,0,1,0-3.018,0v.7c-2.883.7-4.528,3.34-4.528,6.505V18.9L6.037,20.955v1.029h16.1V20.955L20.123,18.9ZM14.086,25.072a2.105,2.105,0,0,0,.407-.041,2.043,2.043,0,0,0,1.449-1.215,2.111,2.111,0,0,0,.156-.8H12.074a2.035,2.035,0,0,0,2.012,2.059Z" transform="translate(-4.05 -5)"/></g></svg>