<svg xmlns="http://www.w3.org/2000/svg" width="20.072" height="20.072" viewBox="0 0 20.072 20.072"><defs><style>.a{fill:#fff;}</style></defs><path class="a" d="M13.287,5.564a3.7,3.7,0,0,1,.873,2.989,3.021,3.021,0,0,1-3.142,2.836h-.109v.524a.873.873,0,0,1-1.745,0v-.7c0-.72.305-1.571,1.855-1.571a1.282,1.282,0,0,0,1.4-1.309,2.026,2.026,0,0,0-.458-1.615,2.6,2.6,0,0,0-2.007-.7C7.985,6.022,7.92,7.309,7.92,7.44a.873.873,0,1,1-1.745,0c0-.873.676-3.164,3.774-3.164a4.238,4.238,0,0,1,3.338,1.287ZM9.971,13.527a1.023,1.023,0,0,0-.764.327,1.111,1.111,0,0,0-.327.764,1.023,1.023,0,0,0,.327.764,1.111,1.111,0,0,0,.764.327,1.023,1.023,0,0,0,.764-.327,1.111,1.111,0,0,0,.327-.764,1.023,1.023,0,0,0-.327-.764A1.071,1.071,0,0,0,9.971,13.527Zm10.1-3.491A10.036,10.036,0,1,1,10.036,0,10.038,10.038,0,0,1,20.072,10.036Zm-1.745,0a8.291,8.291,0,1,0-8.291,8.291A8.287,8.287,0,0,0,18.327,10.036Z"/></svg>